<svg width="1667" height="145" viewBox="0 0 1667 145" fill="none" xmlns="http://www.w3.org/2000/svg">
  <path fill-rule="evenodd" clip-rule="evenodd" d="M434.862 144.033L358.577 67.7118C351.625 60.7564 340.249 60.7564 333.296 67.7118L317.345 83.6705C314.89 86.1271 310.909 86.1271 308.453 83.6705L260.29 35.4842C253.338 28.5288 241.962 28.5288 235.01 35.4842L218.745 51.7569C216.289 54.2135 212.308 54.2135 209.853 51.7569L163.335 5.21671C156.383 -1.7389 145.007 -1.7389 138.055 5.21671L2.57747 140.759C1.5711 141.766 0.71521 142.868 0 144.033H434.862Z" fill="#E4EAEC"/>
  <path fill-rule="evenodd" clip-rule="evenodd" d="M1043.86 144.033L967.577 67.7118C960.625 60.7564 949.249 60.7564 942.296 67.7118L926.345 83.6705C923.89 86.1271 919.909 86.1271 917.453 83.6705L869.29 35.4842C862.338 28.5288 850.962 28.5288 844.01 35.4842L827.745 51.7569C825.289 54.2135 821.308 54.2135 818.853 51.7569L772.335 5.21671C765.383 -1.7389 754.007 -1.7389 747.055 5.21671L611.577 140.759C610.571 141.766 609.715 142.868 609 144.033H1043.86Z" fill="#E4EAEC"/>
  <path fill-rule="evenodd" clip-rule="evenodd" d="M1666.86 144.033L1590.58 67.7118C1583.62 60.7564 1572.25 60.7564 1565.3 67.7118L1549.35 83.6705C1546.89 86.1271 1542.91 86.1271 1540.45 83.6705L1492.29 35.4842C1485.34 28.5288 1473.96 28.5288 1467.01 35.4842L1450.75 51.7569C1448.29 54.2135 1444.31 54.2135 1441.85 51.7569L1395.34 5.21671C1388.38 -1.7389 1377.01 -1.7389 1370.05 5.21671L1234.58 140.759C1233.57 141.766 1232.72 142.868 1232 144.033H1666.86Z" fill="#E4EAEC"/>
  <path fill-rule="evenodd" clip-rule="evenodd" d="M66.2753 85.1558C64.3365 83.2832 63.5171 80.5303 64.2158 77.9259C64.5199 76.7922 64.6823 75.6002 64.6823 74.3701C64.6823 71.3007 63.6725 68.4681 61.9676 66.1853C60.5254 64.2535 60.1221 61.7667 60.8509 59.4683C61.2108 58.3339 61.3801 57.1151 61.3212 55.8485C61.0667 50.3822 56.4971 46.0155 51.0296 46C45.3096 45.984 40.6673 50.6203 40.6673 56.3419C40.6673 57.4562 40.8436 58.529 41.17 59.5343C41.9095 61.8123 41.4429 64.2875 40.0145 66.2092C38.3205 68.4877 37.3177 71.3112 37.3177 74.3701C37.3177 75.5692 37.4719 76.7319 37.7614 77.8399C38.4534 80.4885 37.6531 83.2849 35.6891 85.1903C31.5435 89.2121 28.9746 94.8521 29.0002 101.093C29.049 113.039 38.7523 122.852 50.6864 123.018C62.9803 123.19 73 113.266 73 101.001C73 94.7788 70.4211 89.16 66.2753 85.1558" fill="#B3CC72"/>
  <path fill-rule="evenodd" clip-rule="evenodd" d="M55.4964 94.3121L51.8265 97.2963L50.6651 70.5311C50.6487 70.1532 50.0982 70.1522 50.0806 70.5303L49.2905 87.4357L45.7981 84.0031C45.5462 83.7557 45.1446 84.1381 45.3717 84.4092L49.2173 89.0036L48.4155 106.159L43.7347 102.408C43.4176 102.154 43.0008 102.64 43.2921 102.924L48.3367 107.846L47.2319 133.407C47.2239 133.576 47.3572 133.718 47.5239 133.718H53.018C53.1847 133.718 53.3177 133.577 53.3104 133.408L51.8879 98.7108L55.8836 94.7566C56.1346 94.5082 55.7699 94.0895 55.4964 94.3121Z" fill="#F2F5F7"/>
  <path fill-rule="evenodd" clip-rule="evenodd" d="M311 144.033C350.529 105.429 371.112 85.3082 372.749 83.6705L420.912 35.4842C427.864 28.5288 439.241 28.5288 446.193 35.4842L462.457 51.7569C464.913 54.2135 468.894 54.2135 471.35 51.7569L517.868 5.21671C524.82 -1.7389 536.196 -1.7389 543.148 5.21671L678.625 140.759C679.631 141.766 680.487 142.868 681.203 144.033H311Z" fill="#D9E2E5" fill-opacity="0.7"/>
  <path fill-rule="evenodd" clip-rule="evenodd" d="M951 144.033C990.529 105.429 1011.11 85.3082 1012.75 83.6705L1060.91 35.4842C1067.86 28.5288 1079.24 28.5288 1086.19 35.4842L1102.46 51.7569C1104.91 54.2135 1108.89 54.2135 1111.35 51.7569L1157.87 5.21671C1164.82 -1.7389 1176.2 -1.7389 1183.15 5.21671L1318.63 140.759C1319.63 141.766 1320.49 142.868 1321.2 144.033H951Z" fill="#D9E2E5" fill-opacity="0.7"/>
  <path fill-rule="evenodd" clip-rule="evenodd" d="M956.275 85.1558C954.336 83.2832 953.517 80.5303 954.216 77.9259C954.52 76.7922 954.682 75.6002 954.682 74.3701C954.682 71.3007 953.672 68.4681 951.968 66.1853C950.525 64.2535 950.122 61.7667 950.851 59.4683C951.211 58.3339 951.38 57.1151 951.321 55.8485C951.067 50.3822 946.497 46.0155 941.03 46C935.31 45.984 930.667 50.6203 930.667 56.3419C930.667 57.4562 930.844 58.529 931.17 59.5343C931.909 61.8123 931.443 64.2875 930.014 66.2092C928.32 68.4877 927.318 71.3112 927.318 74.3701C927.318 75.5692 927.472 76.7319 927.761 77.8399C928.453 80.4885 927.653 83.2849 925.689 85.1903C921.544 89.2121 918.975 94.8521 919 101.093C919.049 113.039 928.752 122.852 940.686 123.018C952.98 123.19 963 113.266 963 101.001C963 94.7788 960.421 89.16 956.275 85.1558" fill="#B3CC72"/>
  <path fill-rule="evenodd" clip-rule="evenodd" d="M945.496 94.3121L941.827 97.2963L940.665 70.5311C940.649 70.1532 940.098 70.1522 940.081 70.5303L939.291 87.4357L935.798 84.0031C935.546 83.7557 935.145 84.1381 935.372 84.4092L939.217 89.0036L938.415 106.159L933.735 102.408C933.418 102.154 933.001 102.64 933.292 102.924L938.337 107.846L937.232 133.407C937.224 133.576 937.357 133.718 937.524 133.718H943.018C943.185 133.718 943.318 133.577 943.31 133.408L941.888 98.7108L945.884 94.7566C946.135 94.5082 945.77 94.0895 945.496 94.3121Z" fill="#F2F5F7"/>
</svg>