<svg width="321" height="37" viewBox="0 0 321 37" fill="none" xmlns="http://www.w3.org/2000/svg">
  <path d="M321 17.9657L300.938 9.5602C288.103 4.18297 273.647 4.18297 260.812 9.5602V9.5602C247.978 14.9374 233.522 14.9374 220.688 9.5602L218.742 8.74523C207.003 3.82704 193.955 2.98268 181.681 6.34691L178.577 7.19761C166.85 10.4117 154.392 9.69342 143.113 5.15282L140.663 4.16685C127.738 -1.03621 113.22 -0.564783 100.659 5.46589V5.46589C89.7014 10.727 77.1935 11.7826 65.5088 8.43252L61.0289 7.14809C47.4987 3.26882 33.0501 4.11884 20.068 9.55788L-1.14441e-05 17.9657V37H321V17.9657Z" fill="url(#paint0_linear_5318_2421)"/>
  <defs>
  <linearGradient id="paint0_linear_5318_2421" x1="191" y1="17" x2="191" y2="3" gradientUnits="userSpaceOnUse">
  <stop stop-color="white"/>
  <stop offset="1" stop-color="white" stop-opacity="0.15"/>
  </linearGradient>
  </defs>
</svg>